HIERARCHY
ROOT Hips
{
	OFFSET -0.001795 -0.223333 0.028219
	CHANNELS 6 Xposition Yposition Zposition Zrotation Yrotation Xrotation 
	JOINT LeftUpLeg
	{
		OFFSET 0.069520 -0.091406 -0.006815
		CHANNELS 3 Zrotation Yrotation Xrotation
		JOINT LeftLeg
		{
			OFFSET 0.034277 -0.375199 -0.004496
			CHANNELS 3 Zrotation Yrotation Xrotation
			JOINT LeftFoot
			{
				OFFSET -0.013596 -0.397961 -0.043693
				CHANNELS 3 Zrotation Yrotation Xrotation
				JOINT LeftToe
				{
					OFFSET 0.026358 -0.055791 0.119288
					CHANNELS 3 Zrotation Yrotation Xrotation
					End Site
					{
						OFFSET 0.000000 0.000000 0.000000
					}
				}
			}
		}
	}
	JOINT RightUpLeg
	{
		OFFSET -0.067670 -0.090522 -0.004320
		CHANNELS 3 Zrotation Yrotation Xrotation
		JOINT RightLeg
		{
			OFFSET -0.038290 -0.382569 -0.008850
			CHANNELS 3 Zrotation Yrotation Xrotation
			JOINT RightFoot
			{
				OFFSET 0.015774 -0.398415 -0.042312
				CHANNELS 3 Zrotation Yrotation Xrotation
				JOINT RightToe
				{
					OFFSET -0.025372 -0.048144 0.123348
					CHANNELS 3 Zrotation Yrotation Xrotation
					End Site
					{
						OFFSET 0.000000 0.000000 0.000000
					}
				}
			}
		}
	}
	JOINT Spine
	{
		OFFSET -0.002533 0.108963 -0.026696
		CHANNELS 3 Zrotation Yrotation Xrotation
		JOINT Spine1
		{
			OFFSET 0.005487 0.135180 0.001092
			CHANNELS 3 Zrotation Yrotation Xrotation
			JOINT Spine2
			{
				OFFSET 0.001457 0.052922 0.025425
				CHANNELS 3 Zrotation Yrotation Xrotation
				JOINT Neck
				{
					OFFSET -0.002778 0.213870 -0.042857
					CHANNELS 3 Zrotation Yrotation Xrotation
					JOINT Head
					{
						OFFSET 0.005152 0.064970 0.051349
						CHANNELS 3 Zrotation Yrotation Xrotation
						End Site
						{
							OFFSET 0.000000 0.000000 0.000000
						}
					}
				}
				JOINT LeftShoulder
				{
					OFFSET 0.078845 0.121749 -0.034090
					CHANNELS 3 Zrotation Yrotation Xrotation
					JOINT LeftArm
					{
						OFFSET 0.090977 0.030469 -0.008868
						CHANNELS 3 Zrotation Yrotation Xrotation
						JOINT LeftForeArm
						{
							OFFSET 0.259612 -0.012772 -0.027456
							CHANNELS 3 Zrotation Yrotation Xrotation
							JOINT LeftHand
							{
								OFFSET 0.249234 0.008986 -0.001171
								CHANNELS 3 Zrotation Yrotation Xrotation
								End Site
								{
									OFFSET 0.000000 0.000000 0.000000
								}
							}
						}
					}
				}
				JOINT RightShoulder
				{
					OFFSET -0.081759 0.118833 -0.038615
					CHANNELS 3 Zrotation Yrotation Xrotation
					JOINT RightArm
					{
						OFFSET -0.096012 0.032551 -0.009143
						CHANNELS 3 Zrotation Yrotation Xrotation
						JOINT RightForeArm
						{
							OFFSET -0.253742 -0.013329 -0.021401
							CHANNELS 3 Zrotation Yrotation Xrotation
							JOINT RightHand
							{
								OFFSET -0.255298 0.007772 -0.005559
								CHANNELS 3 Zrotation Yrotation Xrotation
								End Site
								{
									OFFSET 0.000000 0.000000 0.000000
								}
							}
						}
					}
				}
			}
		}
	}
}
MOTION
Frames: 7
Frame Time: 0.050000
0.000000 0.965039 0.000000 -0.865400 -1.758411 0.057957 0.120387 0.905463 9.704570 0.106134 0.368020 -10.541581 1.696056 8.030747 15.342996 0.000000 0.000000 0.000000 -1.141283 -0.505385 6.087409 0.609399 -0.248540 -5.535476 -1.514302 -8.280626 12.727122 0.000000 0.000000 0.000000 5.048170 -0.304188 3.108561 -4.921061 1.761617 -24.688687 -1.223742 4.908449 26.790578 8.210512 -3.714300 -18.868717 0.000000 0.000000 0.000000 18.119707 2.237107 0.733266 -2.388246 -11.741346 -0.872355 12.396155 0.097529 -0.026309 0.000000 0.000000 0.000000 -9.797909 -11.679223 -3.293734 2.379778 7.175208 -0.676211 -7.305468 5.230326 0.022828 0.000000 0.000000 0.000000 
0.000537 0.963937 0.000428 -1.351068 -2.611456 -0.068424 0.387846 0.981925 10.626236 0.377974 0.435413 -12.152056 1.977809 8.284432 14.973827 0.000000 0.000000 0.000000 -0.833104 -0.590466 6.859154 -0.039819 -0.240538 -6.297790 -1.141059 -7.475517 11.987437 0.000000 0.000000 0.000000 5.693126 -0.328700 3.181512 -5.580161 1.920042 -24.145388 -1.284037 4.838940 25.710700 7.516164 -3.309130 -18.794836 0.000000 0.000000 0.000000 18.718333 1.705386 0.794543 -1.923401 -8.913860 -0.687060 9.623240 -1.913605 -0.105191 0.000000 0.000000 0.000000 -8.403439 -11.070443 -3.134183 0.493326 6.419089 -0.466670 -4.906527 7.210061 0.030420 0.000000 0.000000 0.000000 
0.000773 0.963772 0.000481 -1.191195 -4.166032 -0.354703 0.111107 1.099281 11.184200 0.929330 0.423221 -11.712934 2.143715 8.415849 15.242334 0.000000 0.000000 0.000000 -1.384384 -0.523803 6.897122 0.497492 -0.252765 -6.095736 -0.324326 -6.384977 12.720106 0.000000 0.000000 0.000000 5.757892 -0.359967 3.603752 -5.484076 1.845138 -25.686301 -1.309117 6.928363 27.738038 8.704984 -3.777019 -20.002995 0.000000 0.000000 0.000000 19.280390 2.693730 0.751688 -2.529255 -10.385150 -0.818783 8.376128 -1.876230 -0.091834 0.000000 0.000000 0.000000 -6.472566 -12.254736 -3.832705 0.451064 7.722215 -0.558504 -5.886083 7.609179 -0.003332 0.000000 0.000000 0.000000 
0.000957 0.964572 0.000594 -1.060812 -4.556558 -1.030767 -0.305600 1.267278 12.256356 0.775172 0.440540 -11.973882 2.294430 8.375292 14.052732 0.000000 0.000000 0.000000 -1.963414 -0.553163 8.077808 1.183550 -0.295712 -6.690970 -0.132552 -6.387708 13.622992 0.000000 0.000000 0.000000 5.771342 -0.383607 4.025559 -5.335431 1.811414 -25.811585 -1.307140 7.152614 28.637105 8.626582 -3.779359 -19.883245 0.000000 0.000000 0.000000 19.560042 2.363816 0.770882 -3.536471 -8.764117 -0.817012 7.404603 -2.940170 -0.108303 0.000000 0.000000 0.000000 -6.106097 -11.888476 -3.766354 -0.980166 7.456225 -0.426581 -4.442894 6.775853 0.055631 0.000000 0.000000 0.000000 
0.000878 0.964898 0.000610 -0.815146 -4.319479 -0.985992 -0.512173 1.285521 12.248852 1.007361 0.446786 -12.172295 1.909882 7.949743 14.790124 0.000000 0.000000 0.000000 -1.927841 -0.558631 8.062724 0.792318 -0.280181 -6.635306 -0.173017 -6.530760 13.919399 0.000000 0.000000 0.000000 5.232651 -0.369381 4.071693 -5.026529 1.739705 -25.825373 -1.513389 6.982145 27.764225 8.465945 -3.869278 -18.595963 0.000000 0.000000 0.000000 19.477310 1.981967 0.875103 -3.951934 -8.960825 -0.846072 7.197254 -3.838820 -0.133540 0.000000 0.000000 0.000000 -6.368261 -11.651737 -3.645452 -0.089742 6.996666 -0.464385 -3.825630 7.783352 0.073903 0.000000 0.000000 0.000000 
0.000746 0.965046 0.000581 -0.753285 -4.352138 -0.895454 -0.613816 1.295584 12.226580 1.175637 0.437561 -12.022530 2.241074 8.347190 14.230654 0.000000 0.000000 0.000000 -2.071894 -0.538544 8.002191 0.888424 -0.282773 -6.600109 -0.222063 -6.551670 13.704130 0.000000 0.000000 0.000000 5.243990 -0.331805 3.605743 -4.993965 1.733912 -25.670766 -1.576596 6.881642 27.940616 8.799841 -4.034922 -19.074920 0.000000 0.000000 0.000000 19.657763 1.929772 0.867515 -4.893593 -9.096379 -0.920002 7.388539 -3.912557 -0.139976 0.000000 0.000000 0.000000 -7.181945 -11.681022 -3.568905 1.109410 7.529762 -0.593719 -3.769551 7.865917 0.079238 0.000000 0.000000 0.000000 
0.000540 0.964934 0.000457 -0.664580 -4.460149 -0.954124 -0.509443 1.280935 12.173123 1.035555 0.443157 -12.081593 2.224458 8.341191 14.388168 0.000000 0.000000 0.000000 -2.046286 -0.531912 7.903187 0.577407 -0.266954 -6.498720 0.073722 -5.999996 13.604991 0.000000 0.000000 0.000000 5.073214 -0.347706 3.881504 -4.788727 1.687006 -25.548306 -1.685521 6.663583 27.524389 8.594621 -3.957398 -18.892854 0.000000 0.000000 0.000000 19.092107 1.753606 0.831928 -5.101422 -8.719398 -0.921785 7.056675 -3.956547 -0.124490 0.000000 0.000000 0.000000 -6.805410 -11.442238 -3.496059 1.108553 7.677866 -0.599684 -3.648674 8.011783 0.080763 0.000000 0.000000 0.000000 
